<?xml version="1.0" encoding="UTF-8"?>
<svg id="Capa_1" data-name="Capa 1" xmlns="http://www.w3.org/2000/svg" viewBox="0 0 27 27">
  <defs>
    <style>
      .cls-1 {
        stroke-width: 0px;
      }
    </style>
  </defs>
  <path class="cls-1" d="m25.49,8.43c-.65-1.55-1.59-2.94-2.79-4.13-1.2-1.2-2.59-2.13-4.13-2.79-1.6-.68-3.31-1.02-5.07-1.02s-3.46.34-5.07,1.02c-1.55.65-2.94,1.59-4.13,2.79-1.2,1.2-2.13,2.59-2.79,4.13-.68,1.6-1.02,3.31-1.02,5.07s.34,3.46,1.02,5.07c.65,1.55,1.59,2.94,2.79,4.13,1.2,1.2,2.59,2.13,4.13,2.79,1.6.68,3.31,1.02,5.07,1.02s3.46-.34,5.07-1.02c1.55-.65,2.94-1.59,4.13-2.79,1.2-1.2,2.13-2.59,2.79-4.13.68-1.6,1.02-3.31,1.02-5.07,0-1.76-.35-3.46-1.02-5.07ZM4.53,21.86c-2.13-2.28-3.29-5.23-3.29-8.36h0c0-3.28,1.27-6.35,3.59-8.67S10.22,1.24,13.5,1.24s6.09,1.17,8.36,3.29l.61.61c2.13,2.28,3.29,5.23,3.29,8.36s-1.27,6.35-3.59,8.67h0c-2.32,2.32-5.4,3.59-8.67,3.59s-6.09-1.17-8.36-3.29"/>
  <path class="cls-1" d="m11.19,16.42v3.22c0,.64.27,1.23.69,1.64l-1.77,1.77c-.11.11-.14.28-.08.42.06.14.2.24.35.24h6.31c.16,0,.29-.09.35-.24.06-.14.03-.31-.08-.42l-1.79-1.79c.41-.42.67-.99.67-1.63v-4.89c1.94-.91,3.18-2.85,3.18-5.01,0-.21-.17-.39-.39-.39s-.39.17-.39.39c0,1.75-.94,3.32-2.44,4.16-.09-.61-.42-1.14-.89-1.5.64-.28,1.18-.73,1.57-1.3,0,0,.64-.91.66-1.81,0,0,.6-.35.78-.85,0-.01.01-.02.01-.03.25-.57.39-1.33.39-2.12,0-1.3-.37-2.45-.95-2.92-.11-.09-.26-.11-.39-.06-.13.06-.22.18-.23.32-.09,1.2-.54,1.93-.81,1.93-.05,0-.1-.03-.16-.07-.11-.09-.26-.11-.39-.06-.13.06-.22.18-.23.32-.01.17-.02.35-.02.53,0,.8.14,1.55.39,2.12.21.48.49.81.81.96-.15,1.44-1.37,2.56-2.84,2.56s-2.71-1.14-2.84-2.59c.29-.16.55-.47.75-.93.25-.57.39-1.33.39-2.12,0-.18,0-.35-.02-.53-.01-.14-.1-.27-.23-.32-.13-.06-.28-.03-.39.06-.06.05-.12.07-.17.07-.13,0-.3-.17-.45-.45-.19-.37-.33-.9-.37-1.48-.01-.14-.1-.27-.23-.32-.13-.06-.28-.03-.39.06-.58.47-.95,1.62-.95,2.92,0,.8.14,1.55.39,2.12.23.53.55.87.91.99.13,1.35,1,2.49,2.2,3-.47.36-.79.9-.87,1.51-.65-.36-1.21-.86-1.64-1.48-.55-.79-.83-1.73-.83-2.7,0-.21-.17-.39-.39-.39s-.39.17-.39.39c0,1.13.34,2.2.97,3.13.57.83,1.35,1.48,2.25,1.9v.43m5.04-7.09c-.2-.46-.32-1.1-.33-1.77h.05c.62,0,1.14-.61,1.4-1.58.15.46.22,1.03.22,1.54,0,.68-.12,1.35-.33,1.82-.17.39-.35.55-.47.58-.01,0-.03,0-.04,0s-.03,0-.04,0c-.12-.03-.3-.19-.47-.58Zm-5.99.58s-.04,0-.06,0c-.12,0-.31-.16-.5-.58-.21-.47-.33-1.13-.33-1.82,0-.6.09-1.13.22-1.54.27.98.78,1.58,1.4,1.58h.05c0,.67-.12,1.31-.33,1.77-.17.38-.34.54-.46.58Zm1.72,8.8c.41.37.95.59,1.54.59h.04c.59,0,1.13-.22,1.54-.59v2.14c0,.55-.28,1.03-.71,1.3-.01,0-.03.02-.04.03-.01,0-.03.01-.04.02-.02.01-.05.03-.07.04-.01,0-.03.01-.04.02-.02,0-.03.01-.05.02-.01,0-.03.01-.04.01-.03.01-.06.02-.08.03-.01,0-.02,0-.03,0-.02,0-.05.01-.07.02-.01,0-.02,0-.03,0-.03,0-.06.01-.09.02,0,0-.01,0-.01,0-.03,0-.06,0-.09.01,0,0-.02,0-.03,0-.03,0-.07,0-.1,0h-.04s-.07,0-.1,0c0,0-.02,0-.03,0-.03,0-.06,0-.08,0,0,0-.01,0-.01,0-.03,0-.07-.01-.1-.02,0,0-.01,0-.02,0-.03,0-.06-.01-.08-.02,0,0-.01,0-.02,0-.03-.01-.06-.02-.09-.03,0,0-.01,0-.01,0-.03-.01-.05-.02-.07-.03,0,0-.01,0-.02-.01-.03-.01-.06-.03-.09-.04,0,0-.01,0-.02-.01-.02-.01-.05-.03-.07-.04-.45-.27-.74-.76-.74-1.31v-2.14Zm3.8,5.44h-4.45s1.21-1.2,1.21-1.2c.01,0,.03.01.04.01.02,0,.04.02.06.03.01,0,.03.01.05.02.02,0,.04.01.06.02.01,0,.03.01.05.01.02,0,.05.01.07.02.01,0,.03,0,.05.01.02,0,.05.01.07.02.01,0,.03,0,.05.01.03,0,.05.01.08.01.01,0,.03,0,.04,0,.03,0,.05,0,.08.01.01,0,.03,0,.04,0,.03,0,.06,0,.09,0,.01,0,.02,0,.03,0,.04,0,.08,0,.12,0h.04s.08,0,.12,0c.01,0,.03,0,.04,0,.03,0,.06,0,.08,0,.02,0,.03,0,.05,0,.02,0,.05,0,.07-.01.02,0,.04,0,.06-.01.02,0,.04,0,.06-.01.02,0,.04,0,.06-.01.02,0,.04-.01.06-.01.02,0,.04-.01.06-.02.01,0,.03-.01.05-.01.02,0,.05-.01.07-.02.01,0,.02,0,.03-.01.06-.02.12-.05.18-.08l1.22,1.22Zm-.68-8.69v1.54c0,.85-.69,1.54-1.54,1.54h-.04c-.85,0-1.54-.69-1.54-1.54v-1.54c0-.85.69-1.54,1.54-1.54h.04c.85,0,1.54.69,1.54,1.54Z"/>
</svg>