<?xml version="1.0" encoding="UTF-8"?>
<svg id="Capa_1" data-name="Capa 1" xmlns="http://www.w3.org/2000/svg" viewBox="0 0 27 27">
  <defs>
    <style>
      .cls-1 {
        stroke-width: 0px;
      }
    </style>
  </defs>
  <path class="cls-1" d="m25.49,8.43c-.65-1.55-1.59-2.94-2.79-4.13-1.2-1.2-2.59-2.13-4.13-2.79-1.6-.68-3.31-1.02-5.07-1.02s-3.46.34-5.07,1.02c-1.55.65-2.94,1.59-4.13,2.79-1.2,1.2-2.13,2.59-2.79,4.13-.68,1.6-1.02,3.31-1.02,5.07s.34,3.46,1.02,5.07c.65,1.55,1.59,2.94,2.79,4.13,1.2,1.2,2.59,2.13,4.13,2.79,1.6.68,3.31,1.02,5.07,1.02s3.46-.34,5.07-1.02c1.55-.65,2.94-1.59,4.13-2.79,1.2-1.2,2.13-2.59,2.79-4.13.68-1.6,1.02-3.31,1.02-5.07s-.34-3.46-1.02-5.07Zm-2.93-3.2c2.07,2.26,3.21,5.18,3.21,8.27,0,3.28-1.28,6.35-3.6,8.67h0c-2.32,2.32-5.4,3.59-8.67,3.59-3.09,0-6-1.14-8.27-3.21l-.62-.6c-2.18-2.29-3.38-5.28-3.38-8.46h0c0-3.28,1.27-6.35,3.59-8.67,2.32-2.32,5.4-3.59,8.67-3.59s6.16,1.2,8.46,3.38"/>
  <path class="cls-1" d="m16.34,10.23V2.78c0-.21-.17-.39-.39-.39s-.39.17-.39.39v2.97c0,1.01-.73,1.85-1.69,2.02v-1.37c0-.21-.17-.39-.39-.39s-.39.17-.39.39v1.37c-.96-.17-1.69-1.01-1.69-2.02v-2.97c0-.21-.17-.39-.39-.39s-.39.17-.39.39v13.13l.02,1.22v.37c0,1.43,1.07,2.62,2.46,2.8v3.94c0,.21.17.39.39.39s.39-.17.39-.39v-3.94c1.39-.18,2.46-1.36,2.46-2.8v-6.06m-3.23,8.07c-.96-.17-1.69-1.01-1.69-2.02v-1.01c.44.46,1.03.78,1.69.86v2.17Zm0-2.94c-.97-.17-1.69-1.01-1.69-2.02v-1.01c.44.46,1.03.78,1.69.86v2.16Zm0-2.94c-.97-.17-1.69-1.01-1.69-2.02v-1.01c.44.46,1.03.78,1.69.86v2.16Zm0-2.94c-.97-.17-1.69-1.01-1.69-2.02v-1.01c.44.46,1.03.78,1.69.86v2.16Zm2.46,6.8c0,1.01-.73,1.85-1.69,2.02v-2.16c.67-.08,1.26-.4,1.69-.86v1.01Zm0-2.94c0,1.01-.73,1.85-1.69,2.02v-2.16c.66-.09,1.26-.4,1.69-.86v1.01Zm0-2.94c0,1.01-.73,1.85-1.69,2.02v-2.16c.66-.09,1.26-.4,1.69-.86v1.01Zm0-2.94c0,1-.73,1.85-1.69,2.02v-2.16c.66-.09,1.26-.4,1.69-.86v1.01Z"/>
</svg>