<svg xml:space="preserve" style="enable-background:new 0 0 928.5 307.6;" viewBox="0 0 928.5 307.6" y="0px" x="0px" xmlns:xlink="http://www.w3.org/1999/xlink" xmlns="http://www.w3.org/2000/svg" id="Capa_1" version="1.1">
<style type="text/css">
	.st0{fill:#1F6A5D;}
	.st1{fill:#FFFFFF;}
</style>
<rect height="307.6" width="928.5" class="st0"></rect>
<g>
	<g>
		<g>
			<g>
				<g>
					<g>
						<path d="M122.4,194.9L111.3,175l-8.5,10.8l0.2,26.3c0,0.9-0.7,1.6-1.6,1.6H78.6c-0.9,0-1.6-0.7-1.6-1.6l0.7-59.3
							L77,93.5c0-0.9,0.7-1.6,1.6-1.6h22.8c0.9,0,1.6,0.7,1.6,1.6l-0.5,58.8v5.4l25.9-32.4c0.7-0.7,1.7-1.2,2.6-1.2h25.6
							c0.7,0,0.9,0.7,0.5,1.2l-27.7,31l32.3,56c0.3,0.7-0.2,1.4-0.9,1.4h-27.1c-0.9,0-1.9-0.5-2.3-1.4L122.4,194.9z" class="st1"></path>
					</g>
					<g>
						<path d="M165.7,213.6c-0.9,0-1.6-0.7-1.6-1.6l0.5-41.4l-0.2-45c0-0.9,0.7-1.6,1.6-1.6h22.1c0.9,0,1.6,0.7,1.6,1.6
							l-0.5,9.7c6.1-7.8,16.3-13.4,28.9-13.4c19,0,31.1,12.9,31.1,34.8v18.8l0.5,36.5c0,0.9-0.7,1.6-1.6,1.6h-23.3
							c-0.9,0-1.6-0.7-1.6-1.6l0.3-36.5v-18.4c0-9.7-5.7-16-13.6-16c-9.4,0-19.5,8.7-19.5,27.8v6.6l0.3,36.5c0,0.9-0.7,1.6-1.6,1.6
							H165.7z" class="st1"></path>
					</g>
					<g>
						<path d="M301,215.9c-29.2,0-46.1-18.3-46.1-46.8s16.9-47.3,46.1-47.3c29.2,0,45.7,18.3,45.7,46.8
							C346.8,197.1,330.3,215.9,301,215.9z M301,198.5c12.9,0,19-8.9,19-29.4c0-20.2-6.3-29.9-19.1-29.9
							c-13.2,0.2-19.3,9.9-19.3,30.1S288,198.5,301,198.5z" class="st1"></path>
					</g>
					<g>
						<path d="M423.8,213.6c-0.9,0-1.7-0.7-1.9-1.6l-14.1-65.7l-12.2,65.7c-0.2,0.9-1,1.6-1.9,1.6h-27.5
							c-0.9,0-1.7-0.7-1.9-1.6l-19.1-86.4c-0.2-0.9,0.5-1.6,1.2-1.6h23.1c0.9,0,1.7,0.7,1.7,1.6l10.1,65.9l12.3-65.9
							c0.2-0.9,1-1.6,1.9-1.6H424c0.9,0,1.7,0.7,1.9,1.6l11.8,64.7l10.6-64.7c0-0.9,0.9-1.6,1.7-1.6h21c0.9,0,1.4,0.7,1.2,1.6
							l-19,86.4c-0.2,0.9-1,1.6-1.9,1.6H423.8z" class="st1"></path>
					</g>
					<g>
						<path d="M558.3,183.4c0.9,0,1.6,0.7,1.4,1.6c-2.3,16.3-17.9,31-43,31c-29.9,0-46.1-19.7-46.1-46.8
							c0-28.5,17-47.3,45.6-47.3c29.4,0,45.7,19.5,46.3,50.8c0,0.9-0.7,1.6-1.6,1.6h-64c1,16.9,7.7,24.3,20.2,24.3
							c8.7,0,15-4,17.4-13.6c0.2-0.9,1-1.6,1.9-1.6H558.3z M516.4,139c-10.4,0-16.7,6.3-18.8,18.6h36.7
							C533.3,148.1,527.9,139,516.4,139z" class="st1"></path>
					</g>
					<g>
						<path d="M632.9,213.6c-0.9,0-1.6-0.7-1.6-1.6l0.3-8.9c-6.3,7.7-15.1,12.2-26.4,12.2c-25.4,0-38.8-20.2-38.8-46.3
							c0-25.9,15-46.8,39.3-46.8c11.1,0,19.8,4,25.9,11.3l-0.5-8c0-0.9,0.7-1.6,1.6-1.6h23.3c0.9,0,1.6,0.7,1.6,1.6l-0.5,43.3
							l0.5,43.1c0,0.9-0.7,1.6-1.6,1.6H632.9z M612.6,198c12.7,0,19.5-9.6,19.7-28.5c0.2-19.1-6.6-29.6-19.1-29.7
							c-13.2-0.3-20,9.6-20,28C593.1,187.9,600.1,198.2,612.6,198z" class="st1"></path>
					</g>
					<g>
						<path d="M721.6,210.3c0,0.9-0.7,1.7-1.4,2.1c-5,1.7-10.8,3-16.3,3c-15.1,0-29.6-7.7-29.6-28l0.2-44.9h-10.1
							c-0.9,0-1.6-0.7-1.6-1.6v-15.3c0-0.9,0.7-1.6,1.6-1.6h10.1l-0.2-20.9c0-0.9,0.7-1.6,1.6-1.6H699c0.9,0,1.6,0.7,1.6,1.6
							l-0.2,20.9h19.8c0.9,0,1.6,0.7,1.6,1.6v15.3c0,0.9-0.7,1.6-1.6,1.6h-20l0.2,44.2c0,7.7,3.8,10.1,9.6,10.1
							c4.2,0,7.5-0.7,10.1-1.6c0.9-0.2,1.6,0.5,1.6,1.2V210.3z" class="st1"></path>
					</g>
					<g>
						<path d="M768.8,215.7c-26.1,0-42.8-10.6-43.7-30.6c0-0.9,0.7-1.6,1.6-1.6H749c0.9,0,1.6,0.7,1.6,1.6
							c0.7,10.1,7.3,14.4,19.5,14.4c10.3,0,15.8-4,15.8-11c0-17-58.6-0.5-58.6-38.1c0-18.6,15-28.5,39.1-28.5
							c23.5,0,39.3,9.4,40.9,28.2c0.2,0.9-0.5,1.6-1.4,1.6h-21.2c-0.9,0-1.6-0.7-1.7-1.6c-1.4-7.7-6.3-12.3-16.9-12.3
							c-8.5,0-13.9,3.1-13.9,10.8c0,17,58.6-0.3,58.6,37.7C810.7,205.1,793,215.7,768.8,215.7z" class="st1"></path>
					</g>
				</g>
			</g>
		</g>
		<g>
			<g>
				<path d="M832.1,215.6c-7.5,1.1-14.8-2.7-15.8-10.2c-1-7.3,4.6-15.2,13.8-16.5c8.7-1.2,14.8,3.3,15.9,10.6
					C846.9,206.4,841.1,214.3,832.1,215.6z M850.3,118.3c-2.5,14.4-8.8,32.3-14.2,54c-0.5,2.1-1.1,4.1-3.9,4.5
					c-1.9,0.3-3.3-1.3-4.2-3c-2.6-5.1-5.9-18-7.8-31.9c-1.3-9.4-2.1-19.4-1.9-27.4c0.4-10.8,4.3-20.9,15.5-22.5
					c10.3-1.5,16.3,4.9,17.5,13.3C851.8,108.7,851.3,113.2,850.3,118.3z" class="st1"></path>
			</g>
		</g>
	</g>
</g>
</svg>
