<?xml version="1.0" encoding="UTF-8"?>
<svg id="Capa_1" data-name="Capa 1" xmlns="http://www.w3.org/2000/svg" viewBox="0 0 27 27">
  <defs>
    <style>
      .cls-1 {
        stroke-width: 0px;
      }
    </style>
  </defs>
  <path class="cls-1" d="m9.46,18.37v2.37c0,1.24,1.01,2.24,2.24,2.24h3.58c1.24,0,2.24-1.01,2.24-2.24v-9.71c0-.22-.02-.45-.07-.66-.01-.31-.31-.91-.31-.91-.29-.48-.41-.68-.7-.95l-.02-.02c-.53-.51-.84-1.23-.84-1.96v-.07h.5c.21,0,.39-.17.39-.39v-1.67c0-.21-.17-.39-.39-.39h-5.2c-.21,0-.39.17-.39.39v1.67c0,.21.17.39.39.39h.5v.07c0,.74-.31,1.45-.84,1.96l-.02.02c-.68.65-1.08,1.57-1.08,2.52v6.13m1.81-11.47v-.91h4.43v.91h-4.43Zm-1.05,5.34c0-.74.31-1.45.84-1.96l.02-.02c.68-.65,1.08-1.57,1.08-2.52v-.07h2.66v.07c0,.95.39,1.86,1.08,2.52l.02.02c.53.51.84,1.23.84,1.96v.23h-6.53v-.23Zm6.53,9.71c0,.81-.66,1.47-1.47,1.47h-3.58c-.81,0-1.47-.66-1.47-1.47v-8.71h6.53v8.71Z"/>
  <path class="cls-1" d="m25.49,8.43c-.65-1.55-1.59-2.94-2.79-4.13-1.2-1.2-2.59-2.13-4.13-2.79-1.6-.68-3.31-1.02-5.07-1.02s-3.46.34-5.07,1.02c-1.55.65-2.94,1.59-4.13,2.79-1.2,1.2-2.13,2.59-2.79,4.13-.68,1.6-1.02,3.31-1.02,5.07s.34,3.46,1.02,5.07c.65,1.55,1.59,2.94,2.79,4.13,1.2,1.2,2.59,2.13,4.13,2.79,1.6.68,3.31,1.02,5.07,1.02s3.46-.34,5.07-1.02c1.55-.65,2.94-1.59,4.13-2.79,1.2-1.2,2.13-2.59,2.79-4.13.68-1.6,1.02-3.31,1.02-5.07s-.35-3.46-1.02-5.07Zm-2.91-3.18c2.06,2.26,3.18,5.17,3.18,8.24,0,3.28-1.27,6.36-3.59,8.67-2.32,2.32-5.4,3.59-8.67,3.59-3.08,0-5.98-1.13-8.24-3.18l-.61-.6c-2.21-2.29-3.41-5.29-3.41-8.48h0c0-3.27,1.27-6.35,3.59-8.67S10.22,1.24,13.5,1.24s6.19,1.21,8.48,3.41"/>
  <path class="cls-1" d="m11.71,21.76c.21,0,.39-.17.39-.39s-.17-.39-.39-.39c-.14,0-.25-.11-.25-.25v-5.7c0-.21-.17-.39-.38-.39s-.39.17-.39.39v5.71c0,.56.46,1.02,1.02,1.02h0Z"/>
</svg>