<?xml version="1.0" encoding="UTF-8"?>
<svg id="Capa_1" data-name="Capa 1" xmlns="http://www.w3.org/2000/svg" viewBox="0 0 27 27">
  <defs>
    <style>
      .cls-1 {
        stroke-width: 0px;
      }
    </style>
  </defs>
  <g>
    <path class="cls-1" d="m10.37,17.4l.25.25-1.36,1.38c-.12.12-.15.32-.06.47.44.72,1.06,1.33,1.8,1.76.76.44,1.62.67,2.5.67s1.74-.23,2.5-.67c.73-.42,1.36-1.03,1.8-1.76.09-.15.07-.34-.06-.47l-1.35-1.35,6.1-7.03c.12-.12.15-.32.06-.47-.61-1.01-1.39-1.91-2.29-2.66l-.69-.53c-.26-.18-.53-.35-.8-.51-1.6-.92-3.42-1.4-5.27-1.4s-3.67.48-5.27,1.4c-1.55.89-2.86,2.17-3.78,3.69-.09.15-.07.34.06.47l5.25,6.14m5.88.7c-.07.07-.11.17-.11.27s.04.2.11.27l1.4,1.4c-.8,1.13-2.08,1.8-3.48,1.8s-2.68-.67-3.48-1.8l1.41-1.43c.15-.15.15-.39,0-.54l-6.18-7.06c.85-1.3,2-2.4,3.35-3.18,1.48-.85,3.17-1.3,4.89-1.3s3.41.45,4.89,1.3c1.35.77,2.5,1.87,3.35,3.18l-6.15,7.08Z"/>
    <path class="cls-1" d="m25.46,8.45c-.65-1.55-1.59-2.93-2.78-4.12-1.19-1.19-2.58-2.13-4.12-2.78-1.6-.68-3.3-1.02-5.05-1.02s-3.45.34-5.05,1.02c-1.55.65-2.93,1.59-4.12,2.78-1.19,1.19-2.13,2.58-2.78,4.12-.68,1.6-1.02,3.3-1.02,5.05s.34,3.45,1.02,5.05c.65,1.55,1.59,2.93,2.78,4.12,1.19,1.19,2.58,2.13,4.12,2.78,1.6.68,3.3,1.02,5.05,1.02s3.45-.34,5.05-1.02c1.55-.65,2.93-1.59,4.12-2.78,1.19-1.19,2.13-2.58,2.78-4.12.68-1.6,1.02-3.3,1.02-5.05s-.34-3.45-1.02-5.05Zm-2.92-3.2c2.07,2.26,3.2,5.17,3.2,8.25,0,3.27-1.28,6.34-3.59,8.65h0c-2.31,2.31-5.38,3.58-8.65,3.58-3.08,0-5.99-1.13-8.25-3.2l-.62-.6c-2.17-2.29-3.37-5.26-3.37-8.43h0c0-3.27,1.27-6.34,3.58-8.65,2.31-2.31,5.38-3.58,8.65-3.58s6.14,1.19,8.43,3.37"/>
  </g>
  <path class="cls-1" d="m5.87,9.14l4.22,4.46c.08.08.27.03.42-.11s.22-.33.14-.42l-4.23-4.46c-.08-.08-.27-.03-.42.11s-.21.33-.13.42Z"/>
  <path class="cls-1" d="m13.11,5.48v6.7c0,.13.17.23.39.23s.39-.1.39-.23v-6.7c0-.13-.17-.23-.39-.23s-.38.1-.38.23Z"/>
  <path class="cls-1" d="m21.13,9.14l-4.22,4.46c-.08.08-.27.03-.42-.11s-.22-.33-.14-.42l4.23-4.46c.08-.08.27-.03.42.11s.21.33.13.42Z"/>
  <path class="cls-1" d="m18.1,6.95l-2.51,5.61c-.05.11-.24.12-.44.03s-.31-.24-.27-.35l2.51-5.61c.05-.11.24-.12.44-.03s.31.24.27.35Z"/>
  <path class="cls-1" d="m8.9,6.95l2.51,5.61c.05.11.24.12.44.03s.31-.24.27-.35l-2.51-5.61c-.05-.11-.24-.12-.44-.03s-.31.24-.27.35Z"/>
</svg>