<?xml version="1.0" encoding="UTF-8"?>
<svg id="Capa_1" data-name="Capa 1" xmlns="http://www.w3.org/2000/svg" viewBox="0 0 27 27">
  <defs>
    <style>
      .cls-1 {
        stroke-width: 0px;
      }
    </style>
  </defs>
  <path class="cls-1" d="m25.49,8.43c-.65-1.55-1.59-2.94-2.79-4.13-1.2-1.2-2.59-2.13-4.13-2.79-1.6-.68-3.31-1.02-5.07-1.02s-3.46.34-5.07,1.02c-1.55.65-2.94,1.59-4.13,2.79-1.2,1.2-2.13,2.59-2.79,4.13-.68,1.6-1.02,3.31-1.02,5.07s.34,3.46,1.02,5.07c.65,1.55,1.59,2.94,2.79,4.13,1.2,1.2,2.59,2.13,4.13,2.79,1.6.68,3.31,1.02,5.07,1.02s3.46-.34,5.07-1.02c1.55-.65,2.94-1.59,4.13-2.79,1.2-1.2,2.13-2.59,2.79-4.13.68-1.6,1.02-3.31,1.02-5.07s-.34-3.46-1.02-5.07Zm-2.85-3.11c2.02,2.25,3.12,5.13,3.12,8.18,0,3.27-1.27,6.35-3.59,8.67h0c-2.32,2.32-5.4,3.59-8.67,3.59-3.05,0-5.93-1.11-8.18-3.12l-.62-.6c-2.23-2.3-3.46-5.32-3.46-8.54h0c0-3.28,1.27-6.35,3.59-8.67,2.32-2.32,5.4-3.59,8.67-3.59s6.24,1.23,8.54,3.46l.6.62Z"/>
  <path class="cls-1" d="m14.46,15.7l3.94-.13c.29-.01.57.1.79.3.21.2.34.47.35.77v.05c0,.21.18.37.39.37h.01c.21,0,.38-.18.37-.4v-.05c-.01-.5-.22-.96-.59-1.3-.36-.34-.84-.52-1.34-.51l-3.94.12c-.21,0-.38.18-.37.4,0,.21.18.38.39.38h0Z"/>
  <path class="cls-1" d="m13.63,8.93l-3.66-1.47c-.96-.39-2.04.08-2.43,1.04l-.02.05c-.08.2.01.42.21.5.2.08.42-.01.5-.21l.02-.05c.23-.57.87-.84,1.43-.61l3.66,1.47s.1.03.14.03c.15,0,.29-.09.35-.24.08-.2-.01-.42-.21-.5h0Z"/>
  <path class="cls-1" d="m12.36,14.64c-.53-.42-1.43-.67-2.13-.64l-1.79.06c-1.62.05-2.89,1.41-2.84,3.03v.05c.03.77.34,1.48.89,2.02.19.18.4.34.63.46l.9.32c.17.03.34.05.52.05h.09l1.79-.06c.79-.03,1.52-.37,2.06-.93.57.53,1.31.83,2.11.8l3.94-.13c.79-.03,1.51-.35,2.05-.93.54-.57.82-1.32.79-2.1v-.05c-.02-.65-.26-1.27-.67-1.77.19-.23.35-.49.46-.78l.02-.05c.61-1.5-.13-3.22-1.63-3.82l-1.26-.51-.9-.32c-.59-.12-1.2-.06-1.76.18-.3-.71-.88-1.29-1.61-1.58l-3.66-1.47c-.73-.29-1.52-.28-2.25.02-.72.31-1.28.88-1.57,1.61l-.02.05c-.61,1.5.13,3.22,1.63,3.82l3.66,1.47c1.09.36,1.92-.01,2.25-.19l.25.63c-.08,0-.17.01-.25.03,0,0-1.28.07-1.7.74Zm8.24,2.03c.02.58-.19,1.13-.59,1.56-.4.42-.93.67-1.51.68l-3.94.13c-.71.02-1.37-.29-1.8-.86-.07-.1-.19-.16-.32-.15-.12,0-.24.07-.31.17-.39.59-1.04.95-1.74.97l-1.79.06c-.59,0-1.15-.21-1.57-.62-.41-.39-.64-.92-.66-1.49v-.05c-.04-1.2.91-2.2,2.1-2.24l1.79-.06h.07c.68,0,1.32.31,1.73.86.07.1.19.16.32.15.12,0,.24-.07.31-.17.39-.59,1.04-.95,1.74-.97l3.94-.13h.11s.04,0,.06,0c.01,0,.03,0,.05,0,.02,0,.05,0,.07,0,.01,0,.02,0,.03,0,.03,0,.05,0,.07.01.01,0,.02,0,.03,0,.03,0,.05.01.07.01,0,0,.02,0,.03,0,.03,0,.05.01.07.02,0,0,.02,0,.03,0,.03,0,.05.01.07.02,0,0,.02,0,.03,0,.03,0,.05.02.07.03,0,0,.02,0,.03,0,.03,0,.05.02.07.03,0,0,.02,0,.03.01.02.01.05.02.07.03,0,0,.02,0,.03.01.02.01.05.02.07.04,0,0,.02,0,.03.01.02.01.05.03.07.04,0,0,.02.01.03.01.02.01.04.03.06.04,0,0,.02.01.03.02.02.01.04.03.06.05,0,0,.02.01.03.02.02.01.04.03.06.05.01,0,.02.01.03.02.02.01.03.03.05.05.01.01.03.03.05.05.41.39.64.92.66,1.49v.05Zm-.13-2.98l-.02.05c-.08.2-.18.38-.31.54-.01-.01-.03-.02-.04-.03-.02-.01-.05-.03-.07-.05-.01-.01-.03-.02-.05-.03-.02-.01-.04-.03-.06-.04-.01-.01-.03-.02-.05-.03-.03-.01-.05-.03-.08-.04-.01,0-.03-.01-.04-.02-.04-.02-.07-.04-.11-.05-.01,0-.03-.01-.05-.02-.03-.01-.05-.02-.08-.03-.01,0-.03-.01-.05-.02-.03-.01-.06-.02-.09-.03-.01,0-.03,0-.04-.01-.04-.01-.08-.03-.12-.04,0,0-.02,0-.03,0-.03,0-.07-.02-.11-.03-.01,0-.03,0-.05-.01-.03,0-.06-.01-.09-.02-.01,0-.03,0-.04,0-.04,0-.07-.01-.12-.01,0,0-.01,0-.02,0-.05,0-.09,0-.13-.01-.01,0-.03,0-.04,0-.03,0-.06,0-.1,0h-.18l-3.06.1c-.3-.29-.52-.66-.61-1.07-.03-.12-.12-.22-.23-.27-.12-.05-.25-.03-.35.03-.59.38-1.33.45-1.98.19l-3.66-1.47c-1.11-.45-1.65-1.71-1.2-2.82l.02-.05c.22-.54.63-.96,1.16-1.19.53-.23,1.12-.23,1.66-.02l3.66,1.47c.65.26,1.14.83,1.3,1.51.03.12.12.22.23.27.12.05.25.03.35-.03.59-.38,1.33-.45,1.98-.19l1.66.67c1.11.46,1.65,1.72,1.21,2.83Z"/>
</svg>