<?xml version="1.0" encoding="UTF-8"?>
<svg id="Capa_1" data-name="Capa 1" xmlns="http://www.w3.org/2000/svg" viewBox="0 0 27 27">
  <defs>
    <style>
      .cls-1 {
        stroke-width: 0px;
      }
    </style>
  </defs>
  <path class="cls-1" d="m15.02,11.78l-.15-2.1c.22.12.47.18.73.18h.02c.69,0,1.29-.44,1.5-1.09v-.02s.02-.04.03-.05l.83-2.3c.05-.14.01-.29-.09-.4-.11-.11-.26-.14-.4-.09l-2.3.83s-.04.01-.06.02h-.01s0,0,0,0c.05-.32,0-.65-.16-.95h0s-.02-.05-.03-.07l-1.04-2.21c-.06-.13-.2-.22-.35-.22s-.28.09-.35.22l-1.04,2.22s-.02.03-.03.05h0c-.16.33-.21.67-.15,1-.03-.01-.07-.03-.1-.04h-.01s-.04-.02-.06-.02l-2.3-.83c-.14-.05-.29-.01-.4.09-.11.1-.14.26-.09.4l.83,2.3s.01.04.02.05v.02c.22.65.82,1.09,1.51,1.09h.02c.26,0,.51-.06.73-.18l-.37,5.38-.1,1.31-.23,3.33c-.04.37-.05.75-.05,1.13v.74c0,1.16.95,2.11,2.11,2.11h.03c1.16,0,2.11-.95,2.11-2.11v-.74c0-.37-.02-.75-.05-1.13l-.47-6.77m-2.3-6.76h0s.03-.07.04-.09l.69-1.47.69,1.47s.03.05.04.08h0c.16.33.1.71-.15.96h-.01c-.15.17-.35.25-.57.25s-.42-.09-.57-.23h-.01c-.25-.26-.31-.64-.15-.96Zm-1.42,2.93h-.02c-.35,0-.66-.22-.77-.56h0s-.02-.07-.03-.09l-.55-1.53,1.53.55s.06.02.08.03h.01c.34.11.56.42.56.77v.02s0,0,0,0c0,.45-.36.81-.81.81Zm3.47,12.48c0,.74-.6,1.34-1.34,1.34h-.03c-.74,0-1.34-.6-1.34-1.34v-.74c0-.35.02-.71.05-1.06h0s.77-11.26.77-11.26c0-.03,0-.07,0-.1,0-.04,0-.08,0-.12v-.02c0-.09,0-.18-.02-.26.19.08.39.12.6.12.18,0,.34-.03.51-.08-.01.07-.01.15-.01.22v.02s0,.08,0,.12c0,.03-.01.07,0,.1l.27,4,.5,7.25h0c.03.36.05.72.05,1.07v.74Zm1.57-13.14s-.02.05-.03.08h0c-.11.35-.42.58-.77.58h-.02c-.22,0-.42-.09-.57-.24-.16-.16-.24-.36-.24-.58h0v-.02c0-.35.22-.66.56-.77h.01s.06-.02.08-.03l1.53-.55-.55,1.53Z"/>
  <path class="cls-1" d="m25.49,8.43c-.65-1.55-1.59-2.94-2.79-4.13-1.2-1.19-2.59-2.13-4.13-2.79-1.6-.68-3.31-1.02-5.07-1.02s-3.46.34-5.07,1.02c-1.55.65-2.94,1.59-4.13,2.79-1.19,1.2-2.13,2.59-2.79,4.13-.68,1.6-1.02,3.31-1.02,5.07s.34,3.46,1.02,5.07c.65,1.55,1.59,2.94,2.79,4.13,1.2,1.2,2.59,2.13,4.13,2.79,1.6.68,3.31,1.02,5.07,1.02s3.46-.34,5.07-1.02c1.55-.65,2.94-1.59,4.13-2.79,1.2-1.2,2.13-2.59,2.79-4.13.68-1.6,1.02-3.31,1.02-5.07s-.34-3.46-1.02-5.07Zm-2.82-3.08c2,2.25,3.1,5.11,3.1,8.15,0,3.28-1.27,6.35-3.59,8.67h0c-2.32,2.32-5.4,3.59-8.67,3.59-3.04,0-5.9-1.1-8.15-3.1l-.62-.59c-2.25-2.3-3.49-5.34-3.49-8.57h0c0-3.27,1.27-6.35,3.59-8.67,2.32-2.32,5.4-3.59,8.67-3.59s6.27,1.24,8.57,3.5M5.23,21.98"/>
</svg>