<svg xml:space="preserve" style="enable-background:new 0 0 928.5 928.5;" viewBox="0 0 928.5 928.5" y="0px" x="0px" xmlns:xlink="http://www.w3.org/1999/xlink" xmlns="http://www.w3.org/2000/svg" id="Capa_1" version="1.1">
<style type="text/css">
	.st0{fill:#FFFFFF;}
	.st1{fill:#1F6A5D;}
</style>
<g>
	<g>
		<circle r="464.2" cy="464.2" cx="464.2" class="st0"/>
	</g>
	<g>
		<g>
			<path d="M158.5,223.5c-52.4,66.3-83.8,150.1-83.8,241.2c0,90.8,31.1,174.2,83.2,240.4l3.1-266.8L158.5,223.5z" class="st1"/>
			<path d="M626.3,710.5c-5.5-38.9,24.5-81.1,73.4-88c46.2-6.6,79.1,17.4,84.7,56.3c0.3,2.3,0.5,4.6,0.6,6.9     c43.4-62.8,68.9-139,68.9-221.1c0-70-18.5-135.6-50.8-192.3C787.3,344.2,758,431,732.3,534c-2.6,11.3-6.1,21.9-20.9,24     c-9.9,1.4-17.7-6.7-22.4-16.1c-14-27.4-31.3-96.3-41.9-170.3c-7.1-50.2-11.3-103.3-9.9-146.3c1.2-35.6,9.7-69.9,30.3-92.9     c-59.2-36.3-128.7-57.2-203.2-57.2c-60.7,0-118.1,13.9-169.3,38.7c1.1,1.4,1.9,3.2,1.9,5.2L294,435.4v29l139.5-174.2     c3.8-3.7,9.4-6.5,14.1-6.5h137.6c3.8,0,4.7,3.7,2.8,6.5L439.1,457l174.1,301.5c1.9,3.7-0.9,7.5-4.7,7.5H462.5     c-4.7,0-10.3-2.8-12.2-7.5l-48.7-93.7l-59.9-106.7l-45.9,58l0.9,141.4c0,4.7-3.8,8.4-8.4,8.4h-70.9     c67.2,55.1,153.1,88.2,246.8,88.2c94.4,0,181-33.6,248.4-89.5c-0.7,0.1-1.3,0.3-1.9,0.4C670.8,770.7,631.9,750.4,626.3,710.5z" class="st1"/>
		</g>
	</g>
</g>
</svg>