<?xml version="1.0" encoding="UTF-8"?>
<svg id="Capa_1" data-name="Capa 1" xmlns="http://www.w3.org/2000/svg" viewBox="0 0 27 27">
  <defs>
    <style>
      .cls-1 {
        stroke-width: 0px;
      }
    </style>
  </defs>
  <path class="cls-1" d="m8.14,19.72c.13.17.27.33.42.48,1.28,1.31,3.03,2.03,4.94,2.03s3.66-.72,4.94-2.03c.65-.66,1.15-1.45,1.5-2.34.36-.93.55-1.95.55-3.03,0-1.97-.71-4-1.84-5.6l-.53-.69c-.71-.83-1.54-1.5-2.44-1.94-.68-.33-1.26-.82-1.68-1.42l-.17-.24c-.07-.11-.19-.17-.31-.17s-.24.06-.31.17l-.17.24c-.42.6-1,1.09-1.68,1.42-2.75,1.32-4.82,4.85-4.82,8.22,0,1.08.18,2.1.55,3.03.16.41.35.79.57,1.16l.5.71Zm11.57-4.9c0,1.94-.63,3.62-1.82,4.84-1.13,1.16-2.69,1.8-4.39,1.8s-3.26-.64-4.39-1.8c-1.2-1.22-1.83-2.9-1.83-4.84h0c0-1.51.46-3.12,1.29-4.52.81-1.38,1.91-2.44,3.09-3.01.73-.35,1.36-.86,1.84-1.48.48.62,1.11,1.13,1.84,1.48,1.18.57,2.28,1.63,3.09,3.01.83,1.41,1.29,3.01,1.29,4.52Z"/>
  <path class="cls-1" d="m25.49,8.43c-.65-1.55-1.59-2.94-2.79-4.13-1.2-1.2-2.59-2.13-4.13-2.79-1.6-.68-3.31-1.02-5.07-1.02s-3.46.34-5.07,1.02c-1.55.65-2.94,1.59-4.13,2.79-1.2,1.2-2.13,2.59-2.79,4.13-.68,1.6-1.02,3.31-1.02,5.07s.34,3.46,1.02,5.07c.65,1.55,1.59,2.94,2.79,4.13,1.2,1.2,2.59,2.13,4.13,2.79,1.6.68,3.31,1.02,5.07,1.02s3.46-.34,5.07-1.02c1.55-.65,2.94-1.59,4.13-2.79,1.2-1.2,2.13-2.59,2.79-4.13.68-1.6,1.02-3.31,1.02-5.07s-.34-3.46-1.02-5.07ZM4.65,21.99c-2.21-2.3-3.42-5.3-3.42-8.49s1.27-6.35,3.59-8.67c2.32-2.32,5.4-3.59,8.67-3.59s6.2,1.21,8.49,3.42l.6.62c2.05,2.26,3.17,5.16,3.17,8.23,0,3.28-1.28,6.36-3.59,8.67h0c-2.32,2.32-5.4,3.59-8.67,3.59-3.07,0-5.97-1.12-8.23-3.17"/>
  <path class="cls-1" d="m9.07,15.84c.1-.3.27-.43.63-.48h0c.13-.02.28-.04.44-.1.31-.11.46-.41.4-.75-.06-.32-.29-.53-.63-.55-.12,0-.25,0-.38.05-.11.03-.21.05-.29.05-.13,0-.28-.03-.43-.38,0-.01,0-.02-.01-.03v-.18c.08-.18.21-.31.41-.43.4-.24.32-.67.29-.81-.02-.1-.05-.19-.08-.26-.01-.03-.02-.05-.03-.08-.06-.17,0-.2.07-.23.45-.2.65-.55.59-1.04-.01-.15,0-.31.05-.46.02-.06.05-.06.06-.06s.02,0,.03,0c.09.03.19.04.28.04.51,0,.75-.4.83-.53.11-.17.24-.28.4-.32.05-.01.09-.02.14-.02.24,0,.45.18.53.44.07.24.03.47-.04.79-.09.42-.17,1.04.28,1.58.22.26.54.41.88.41h.02c.34,0,.66-.15.88-.41.45-.54.38-1.16.28-1.58-.07-.31-.12-.55-.04-.79.08-.26.29-.44.53-.44.05,0,.09,0,.14.02.16.05.29.15.4.32.08.13.32.53.83.53.09,0,.18-.01.28-.04.01,0,.02,0,.03,0,.01,0,.05,0,.06.06.05.15.07.32.05.46-.05.49.15.83.59,1.04.07.03.13.06.07.23,0,.03-.02.05-.03.07-.03.07-.06.16-.08.26-.03.14-.11.57.29.81.2.12.33.25.41.43v.18s0,.02-.01.03c-.15.35-.3.38-.43.38-.08,0-.18-.02-.29-.05-.13-.04-.26-.05-.38-.05-.33.02-.57.24-.63.55-.06.34.1.64.4.75.15.06.3.08.43.1h0c.36.05.53.18.63.48.04.12-.04.43-.21.6-.09.09-.22.12-.43.16h-.01c-.35.08-.51.27-.58.4-.07.14-.13.38,0,.71.05.11.09.19.14.28l.02.04c.09.16.05.21-.04.28-.06.05-.11.08-.18.12-.41.22-.6.55-.55.99,0,.05-.01.16-.08.28-.06.12-.21.19-.37.19-.03,0-.06,0-.09,0-.18-.03-.37-.23-.4-.41-.02-.12-.03-.24-.04-.38-.01-.14-.02-.28-.04-.43-.06-.41-.3-.68-.66-.75-.05-.01-.11-.01-.15-.01-.19,0-.47.07-.71.41-.01.02-.03.05-.05.07-.01-.02-.03-.05-.05-.07-.24-.34-.52-.41-.71-.41-.05,0-.11,0-.15.01-.36.07-.6.34-.66.75-.02.15-.03.29-.04.43,0,.13-.02.26-.04.38-.03.18-.22.38-.4.41-.03,0-.06,0-.09,0-.16,0-.31-.08-.37-.19-.06-.12-.08-.22-.08-.28.05-.43-.14-.77-.55-.99-.06-.03-.12-.07-.18-.12-.09-.07-.13-.13-.04-.28l.02-.04c.05-.09.1-.18.14-.28.14-.33.08-.57,0-.71-.07-.14-.24-.33-.58-.4h-.01c-.21-.05-.34-.08-.43-.17-.17-.16-.25-.48-.21-.59h0Zm.49,1.51s.04.01.05.01c0,.01,0,.03-.01.05-.03.06-.06.13-.11.21l-.02.04c-.25.46-.16.93.24,1.25.09.07.19.14.29.19.16.09.16.13.15.24-.03.3.09.58.16.72.19.36.61.6,1.05.6.08,0,.16,0,.24-.02.5-.1.93-.55,1.01-1.05.02-.15.03-.3.05-.44,0-.13.02-.25.03-.37.01-.07.03-.11.03-.11,0,0,0,0,.01,0h0s.03.02.08.09c.06.08.11.18.17.29.03.05.05.1.07.14.01.03.03.06.04.08,0,.01.01.03.02.05.06.13.19.21.33.22h.08c.14,0,.27-.09.33-.22,0-.01.01-.03.02-.05.01-.03.03-.06.04-.08.03-.05.05-.09.07-.14.06-.11.11-.21.17-.29.05-.07.08-.09.08-.09h0s.01,0,.01,0c0,0,.03.04.04.11.02.12.03.24.03.37.01.14.02.29.05.44.08.5.51.95,1.01,1.05.08.01.16.02.24.02.45,0,.86-.24,1.05-.6.07-.14.19-.42.16-.72-.01-.1,0-.15.15-.24.1-.06.2-.12.29-.19.4-.32.49-.79.24-1.25l-.02-.04c-.04-.07-.08-.14-.11-.21,0-.02-.01-.03-.01-.05.01,0,.03,0,.05-.01h.01c.24-.06.54-.12.8-.36.37-.35.55-.97.41-1.4-.09-.26-.25-.59-.63-.8.37-.08.65-.34.85-.77,0,0,.01-.01.01-.02.05-.07.08-.15.08-.24v-.38s0-.09-.03-.13c-.13-.34-.36-.63-.7-.84,0-.01,0-.03,0-.05,0-.03.02-.07.04-.12.01-.04.03-.07.04-.11.18-.51-.01-.97-.48-1.18-.15-.06-.16-.09-.15-.25.03-.25,0-.53-.09-.79-.12-.35-.43-.58-.79-.58-.07,0-.15.01-.22.03-.03,0-.06.01-.08.01-.03,0-.08,0-.18-.16-.21-.33-.5-.56-.84-.66-.11-.03-.23-.05-.34-.05-.58,0-1.08.39-1.26.98-.14.45-.05.85.03,1.18.1.43.06.7-.12.92-.09.11-.21.14-.29.14h-.02c-.08,0-.19-.02-.29-.14-.18-.22-.22-.49-.12-.92.07-.33.16-.73.03-1.18-.18-.58-.69-.98-1.26-.98-.12,0-.23.01-.34.05-.35.1-.64.33-.84.66-.1.16-.15.16-.18.16-.02,0-.05,0-.08-.01-.07-.02-.15-.03-.22-.03-.37,0-.68.23-.79.58-.08.25-.12.53-.09.79.02.16,0,.19-.15.25-.47.21-.66.67-.48,1.18.01.04.03.07.04.11.02.05.04.09.04.12,0,.02,0,.03,0,.05-.33.21-.57.5-.7.84-.01.05-.03.09-.03.13v.38c0,.09.03.17.08.24,0,0,.01.01.01.02.2.43.48.68.85.77-.25.14-.49.38-.63.8-.14.43.04,1.04.41,1.4.25.24.55.31.8.36h.01Z"/>
</svg>