<?xml version="1.0" encoding="UTF-8"?>
<svg id="Capa_1" data-name="Capa 1" xmlns="http://www.w3.org/2000/svg" viewBox="0 0 27 27">
  <defs>
    <style>
      .cls-1, .cls-2 {
        stroke-width: 0px;
      }

      .cls-2 {
        fill: #ffe600;
      }
    </style>
  </defs>
  <g>
    <circle class="cls-2" cx="13.5" cy="13.5" r="13"/>
    <path class="cls-1" d="m18.72,13.18c-.04.07-1.07,1.8-3.17,3.16-.08.05-.17.08-.26.08-.15,0-.31-.08-.4-.21-.14-.22-.08-.51.14-.65,1.9-1.24,2.86-2.83,2.87-2.85.13-.22.42-.3.65-.16.22.13.3.42.17.65h0Zm1.89-2.85s0,.22-.14.41l-.12.16s0,0,0,.01c-.63-1.15-1.63-1.92-2.96-2.3,0,0,0-.01.01-.02l.12-.16c.14-.18.31-.25.35-.24,1.25.32,2.15,1.02,2.74,2.14h0Zm-1.21,2.84c-.97,1.93-4.01,4.55-7.95,5.82-2.91.94-4.63.29-5.2-.07.12-.05.27-.11.41-.16,1.22-.47,3.5-1.34,5.92-4.71.43-.6.8-1.22,1.16-1.83,1.05-1.78,1.76-2.87,3.05-2.78h.06s0,0,.01,0c1.33.31,2.23,1.02,2.77,2.16,0,0,0,.02.01.02,0,.05,0,.11.02.16.11.33.02.82-.26,1.38h0Zm2.06-5.66c.26-.04.43-.28.39-.54-.04-.26-.28-.43-.54-.39-.83.14-1.51.82-1.85,1.25-.41-.24-.87-.42-1.36-.55-.45-.12-.97.11-1.33.57l-.12.16c-.12.16-.2.33-.24.5-1.65.13-2.54,1.64-3.49,3.24-.34.58-.7,1.19-1.11,1.75-2.26,3.14-4.36,3.95-5.49,4.38-.65.25-1.16.45-1.18,1.01,0,.25.14.49.45.73.59.44,1.63.81,3.03.81.9,0,1.95-.15,3.13-.53,3.17-1.02,7.1-3.51,8.5-6.29.33-.66.46-1.25.39-1.76.16-.08.32-.2.44-.36l.12-.16c.36-.46.45-1.02.23-1.43-.32-.6-.73-1.1-1.21-1.51.29-.34.76-.79,1.23-.86h0Z"/>
  </g>
  <path class="cls-1" d="m25.49,8.43c-.65-1.55-1.59-2.94-2.79-4.13-1.2-1.19-2.59-2.13-4.13-2.79-1.6-.68-3.31-1.02-5.07-1.02s-3.46.34-5.07,1.02c-1.55.65-2.94,1.59-4.13,2.79-1.19,1.2-2.13,2.59-2.79,4.13-.68,1.6-1.02,3.31-1.02,5.07s.34,3.46,1.02,5.07c.65,1.55,1.59,2.94,2.79,4.13,1.2,1.2,2.59,2.13,4.13,2.79,1.6.68,3.31,1.02,5.07,1.02s3.46-.34,5.07-1.02c1.55-.65,2.94-1.59,4.13-2.79,1.2-1.2,2.13-2.59,2.79-4.13.68-1.6,1.02-3.31,1.02-5.07s-.34-3.46-1.02-5.07Zm-2.82-3.08c2,2.25,3.1,5.11,3.1,8.15,0,3.28-1.27,6.35-3.59,8.67h0c-2.32,2.32-5.4,3.59-8.67,3.59-3.04,0-5.9-1.1-8.15-3.1l-.62-.59c-2.25-2.3-3.49-5.34-3.49-8.57h0c0-3.27,1.27-6.35,3.59-8.67,2.32-2.32,5.4-3.59,8.67-3.59s6.27,1.24,8.57,3.5M5.23,21.98"/>
</svg>