<?xml version="1.0" encoding="UTF-8"?>
<svg id="Capa_1" data-name="Capa 1" xmlns="http://www.w3.org/2000/svg" viewBox="0 0 27 27">
  <defs>
    <style>
      .cls-1 {
        stroke-width: 0px;
      }
    </style>
  </defs>
  <path class="cls-1" d="m25.49,8.43c-.65-1.55-1.59-2.94-2.79-4.13-1.2-1.2-2.59-2.13-4.13-2.79-1.6-.68-3.31-1.02-5.07-1.02s-3.46.34-5.07,1.02c-1.55.65-2.94,1.59-4.13,2.79-1.2,1.2-2.13,2.59-2.79,4.13-.68,1.6-1.02,3.31-1.02,5.07s.34,3.46,1.02,5.07c.65,1.55,1.59,2.94,2.79,4.13,1.2,1.2,2.59,2.13,4.13,2.79,1.6.68,3.31,1.02,5.07,1.02s3.46-.34,5.07-1.02c1.55-.65,2.94-1.59,4.13-2.79,1.2-1.2,2.13-2.59,2.79-4.13.68-1.6,1.02-3.31,1.02-5.07,0-1.76-.35-3.46-1.02-5.07Zm-3.56-3.08.69-.06c2.03,2.25,3.15,5.14,3.15,8.2,0,3.28-1.28,6.36-3.6,8.68h0c-2.32,2.32-5.4,3.59-8.67,3.59-3.06,0-5.95-1.11-8.2-3.15l-.62-.6c-2.22-2.3-3.44-5.31-3.44-8.52h0c0-3.28,1.27-6.35,3.59-8.67,2.32-2.32,5.4-3.59,8.67-3.59s6.22,1.22,8.52,3.44l.6.62Z"/>
  <path class="cls-1" d="m15.53,11.16l-.09-.15v-6.12h.22c.21,0,.39-.17.39-.39s-.17-.39-.39-.39h-4.32c-.21,0-.39.17-.39.39s.17.39.39.39h.22v6.12l-4.58,7.78c-.23.35-.31.77-.23,1.16.07.47.41.81.41.81.3.33.72.51,1.18.51h10.35c.6,0,1.13-.31,1.42-.84.28-.52.26-1.14-.06-1.64l-4.04-6.87m-3.71-.62c.03-.06.05-.13.05-.19v-6.22h2.35v6.22c0,.07.02.13.05.19l1.07,1.81h-4.59s1.07-1.81,1.07-1.81Zm7.14,8.76c-.15.28-.43.44-.74.44h-10.35c-.31,0-.59-.17-.74-.44h0c-.15-.28-.14-.6.03-.86,0,0,0-.01,0-.01l3.12-5.3h5.49l3.12,5.3s0,.01,0,.01c.17.26.18.59.03.86Z"/>
  <path class="cls-1" d="m11.36,18.1c-.09,0-.19-.02-.33-.06-.13-.04-.21-.06-.25-.06-.08,0-.15.02-.19.07-.05.05-.07.11-.07.18,0,.1.07.19.22.27.15.07.33.11.54.11.28,0,.5-.07.67-.22.17-.15.25-.34.25-.58,0-.17-.05-.32-.16-.43-.11-.12-.27-.21-.5-.29-.03,0-.06-.02-.11-.04-.21-.07-.31-.15-.31-.24,0-.06.02-.11.07-.15.05-.04.11-.06.19-.06.05,0,.12.01.22.04.1.03.16.04.21.04.07,0,.13-.02.18-.06.04-.04.06-.1.06-.17,0-.1-.06-.18-.18-.25-.12-.07-.28-.1-.46-.1-.25,0-.46.07-.62.21-.16.14-.24.32-.24.54,0,.17.05.31.15.41.1.1.27.19.52.26.17.05.28.1.34.15.05.05.08.11.08.18s-.03.13-.07.18c-.06.05-.12.08-.2.08h0Z"/>
  <path class="cls-1" d="m13.11,16.81c.11-.13.24-.2.42-.2s.31.07.42.2c.11.13.16.32.16.55s-.05.4-.16.53c-.11.13-.24.2-.42.2s-.31-.07-.42-.2c-.11-.13-.16-.31-.16-.53s.05-.41.16-.55Zm.42,1.79c.35,0,.63-.12.85-.34.21-.23.32-.53.32-.91s-.11-.68-.32-.91c-.21-.23-.5-.35-.85-.35s-.63.12-.84.35c-.21.23-.32.53-.32.91s.11.68.32.91c.21.22.49.34.84.34h0Z"/>
  <path class="cls-1" d="m15.23,18.81s-.06.06-.1.11c-.22.24-.33.39-.33.47,0,.09.03.15.08.19.05.04.13.06.24.06h.96c.13,0,.22-.02.29-.06.06-.04.09-.11.09-.19s-.03-.15-.09-.19c-.06-.04-.16-.06-.29-.06h-.5c.33-.33.55-.58.66-.75.11-.17.16-.33.16-.49,0-.21-.07-.37-.21-.51-.14-.13-.33-.2-.55-.2-.13,0-.24.03-.35.08-.11.05-.2.13-.28.23-.05.06-.09.13-.12.22-.03.08-.05.15-.05.22,0,.08.03.15.07.2.05.05.11.07.19.07.06,0,.11-.02.15-.06.04-.04.07-.11.12-.22.03-.08.07-.14.11-.18.05-.04.09-.06.15-.06.06,0,.11.02.15.06.04.04.06.1.06.16,0,.08-.04.18-.12.29-.08.13-.24.32-.48.58h0Z"/>
</svg>